# xmcd
#
# Track frame offsets:
#	150
#	12025
#	19729
#	32313
#	51798
#	65907
#	80885
#	93026
#	103360
#	117320
#	131415
#	142557
#	159637
#	172860
#	185768
#	200675
#	215817
#	225269
#	237605
#	252380
#	262533
#	270920
#
# Disc length: 3887 seconds
#
# Revision: 0
# Processed by: cddbd v1.5.2PL0 Copyright (c) Steve Scherf et al.
# Submitted via: EasyCDDAExtractor 2011.0.0.0
#
DISCID=270f2d16
DTITLE=김세환
DYEAR=1900
DGENRE=
TTITLE0=청춘만세
TTITLE1=첫 사랑
TTITLE2=어리석은 사랑
TTITLE3=아름다운 너
TTITLE4=꿈속의 천사
TTITLE5=잊지 못할 추억
TTITLE6=내사랑 코리나
TTITLE7=말해줘요
TTITLE8=별이 빛나는 밤에
TTITLE9=어느 서녀에게 바친 사랑
TTITLE10=돌아오라 내게로
TTITLE11=새벽 별빛 아래로
TTITLE12=안녕 외로운 밤이여
TTITLE13=그리움
TTITLE14=눈물의 왈츠
TTITLE15=이별의 노래
TTITLE16=소중한 사랑
TTITLE17=종이장미
TTITLE18=사랑의 속삭임
TTITLE19=오늘은 일요일
TTITLE20=목장길 따라
TTITLE21=옛날이야기
EXTD=
EXTT0=
EXTT1=
EXTT2=
EXTT3=
EXTT4=
EXTT5=
EXTT6=
EXTT7=
EXTT8=
EXTT9=
EXTT10=
EXTT11=
EXTT12=
EXTT13=
EXTT14=
EXTT15=
EXTT16=
EXTT17=
EXTT18=
EXTT19=
EXTT20=
EXTT21=
PLAYORDER=
